<svg width="1431" height="1153" viewBox="0 0 1431 1153" fill="none" xmlns="http://www.w3.org/2000/svg">
<g clip-path="url(#clip0)">
<path d="M870.652 577.686C874.614 574.466 880.538 577.286 880.538 582.391V663.628L813.846 624.219L870.652 577.686Z" fill="#FFC850"/>
<path d="M874.475 660.045L833.869 636.051L867.702 597.907C870.068 595.241 874.475 596.914 874.475 600.479V660.045Z" fill="#EBAF4B"/>
<path d="M732.79 577.686C728.827 574.466 722.903 577.286 722.903 582.391V663.628L789.595 624.219L732.79 577.686Z" fill="#FFC850"/>
<path d="M728.966 660.045L769.573 636.051L735.74 597.907C733.374 595.241 728.966 596.914 728.966 600.479C728.966 600.479 728.966 660.045 728.966 660.045Z" fill="#EBAF4B"/>
<path d="M801.721 763.666C848.599 763.666 886.602 727.699 886.602 683.333C886.602 638.966 848.599 603 801.721 603C754.842 603 716.839 638.966 716.839 683.333C716.839 727.699 754.842 763.666 801.721 763.666Z" fill="#FFDC64"/>
<path d="M813.846 733.351V739.414C813.846 746.111 808.418 751.54 801.721 751.54C795.024 751.54 789.595 746.111 789.595 739.414V733.351L801.721 727.289L813.846 733.351Z" fill="#FF8087"/>
<path d="M808.415 702.141H795.027C792.136 702.141 790.536 705.492 792.353 707.74L799.047 716.022C800.423 717.724 803.018 717.724 804.394 716.022L811.089 707.74C812.906 705.492 811.305 702.141 808.415 702.141Z" fill="#5D5360"/>
<path d="M883.566 736.383C883.096 736.383 882.618 736.273 882.171 736.041C863.841 726.51 835.154 720.847 834.865 720.79C833.222 720.47 832.15 718.878 832.47 717.235C832.791 715.59 834.368 714.517 836.026 714.84C837.234 715.075 865.853 720.722 884.968 730.662C886.453 731.434 887.032 733.264 886.259 734.75C885.719 735.788 884.662 736.383 883.566 736.383Z" fill="#E1A546"/>
<path d="M889.634 715.164C889.374 715.164 889.109 715.13 888.845 715.059C871.854 710.491 840.958 711.358 840.653 711.372C838.951 711.421 837.58 710.106 837.531 708.433C837.481 706.759 838.797 705.362 840.47 705.312C841.772 705.27 872.574 704.406 890.42 709.203C892.037 709.638 892.995 711.301 892.561 712.918C892.196 714.271 890.972 715.162 889.634 715.164Z" fill="#E1A546"/>
<path d="M822.941 757.603C776.063 757.603 738.061 721.637 738.061 677.27C738.061 644.69 758.564 616.662 788.015 604.057C747.656 610.26 716.84 643.384 716.84 683.332C716.84 727.699 754.843 763.666 801.721 763.666C814.175 763.666 825.991 761.106 836.647 756.545C832.184 757.231 827.609 757.603 822.941 757.603Z" fill="#FFC850"/>
<path d="M719.875 736.382C718.779 736.382 717.722 735.789 717.182 734.75C716.409 733.264 716.988 731.434 718.473 730.661C737.588 720.722 766.208 715.075 767.415 714.84C769.06 714.51 770.65 715.592 770.971 717.234C771.291 718.877 770.219 720.47 768.576 720.79C768.287 720.846 739.6 726.51 721.271 736.041C720.823 736.273 720.346 736.382 719.875 736.382Z" fill="#E1A546"/>
<path d="M713.807 715.164C712.469 715.164 711.245 714.271 710.881 712.918C710.447 711.301 711.405 709.638 713.021 709.203C730.87 704.404 761.667 705.275 762.972 705.312C764.645 705.362 765.961 706.759 765.91 708.433C765.86 710.106 764.411 711.432 762.789 711.372C762.478 711.361 731.577 710.491 714.597 715.059C714.333 715.13 714.068 715.164 713.807 715.164Z" fill="#E1A546"/>
<path d="M766.859 693.943C761.024 693.943 756.249 689.168 756.249 683.333V677.27C756.249 671.434 761.024 666.66 766.859 666.66C772.695 666.66 777.469 671.434 777.469 677.27V683.333C777.469 689.168 772.695 693.943 766.859 693.943Z" fill="#4B3F4E"/>
<path d="M766.859 666.66C766.34 666.66 765.843 666.741 765.344 666.814V681.817C765.344 685.165 768.058 687.88 771.406 687.88C774.755 687.88 777.469 685.165 777.469 681.817V677.27C777.469 671.434 772.694 666.66 766.859 666.66Z" fill="#5D5360"/>
<path d="M766.86 678.787C769.371 678.787 771.407 676.751 771.407 674.24C771.407 671.728 769.371 669.692 766.86 669.692C764.349 669.692 762.313 671.728 762.313 674.24C762.313 676.751 764.349 678.787 766.86 678.787Z" fill="white"/>
<path d="M836.582 693.943C830.747 693.943 825.972 689.168 825.972 683.333V677.27C825.972 671.434 830.747 666.66 836.582 666.66C842.418 666.66 847.192 671.434 847.192 677.27V683.333C847.192 689.168 842.418 693.943 836.582 693.943Z" fill="#4B3F4E"/>
<path d="M836.582 666.66C836.063 666.66 835.566 666.741 835.067 666.814V681.817C835.067 685.165 837.781 687.88 841.129 687.88C844.478 687.88 847.192 685.165 847.192 681.817V677.27C847.192 671.434 842.418 666.66 836.582 666.66Z" fill="#5D5360"/>
<path d="M836.582 678.787C839.093 678.787 841.129 676.751 841.129 674.24C841.129 671.728 839.093 669.692 836.582 669.692C834.07 669.692 832.034 671.728 832.034 674.24C832.034 676.751 834.07 678.787 836.582 678.787Z" fill="white"/>
<path d="M804.066 716.151L797.371 702.9C797.25 702.659 797.182 702.396 797.09 702.141H795.027C792.136 702.141 790.536 705.492 792.353 707.739L799.047 716.022C800.346 717.628 802.699 717.663 804.12 716.236C804.104 716.205 804.082 716.184 804.066 716.151Z" fill="#4B3F4E"/>
<path d="M801.721 727.289L789.595 733.351V739.414C789.595 740.376 789.735 741.3 789.947 742.197C792.997 741.819 795.944 740.935 798.689 739.58V742.446C798.689 744.12 800.046 745.477 801.721 745.477C803.395 745.477 804.752 744.12 804.752 742.446V739.58C807.498 740.936 810.445 741.819 813.495 742.197C813.706 741.3 813.846 740.376 813.846 739.414V733.351L801.721 727.289Z" fill="#E6646E"/>
<path d="M816.878 736.383C812.59 736.383 808.457 735.108 804.93 732.697C803.041 731.406 800.402 731.406 798.51 732.697C794.984 735.108 790.852 736.383 786.563 736.383C781.346 736.383 776.32 734.453 772.413 730.949C771.166 729.83 771.063 727.913 772.18 726.667C773.298 725.42 775.211 725.317 776.463 726.434C781.553 731.002 789.52 731.501 795.09 727.691C799.056 724.982 804.387 724.982 808.351 727.691C813.922 731.499 821.89 730.999 826.981 726.436C828.225 725.32 830.141 725.42 831.261 726.67C832.379 727.916 832.274 729.833 831.028 730.95C827.119 734.454 822.096 736.383 816.878 736.383Z" fill="#EBAF4B"/>
</g>
<g clip-path="url(#clip1)">
<path d="M583.632 896.842H496.877C493.645 896.842 491.026 894.224 491.026 890.992V733.656C491.026 730.423 493.645 727.805 496.877 727.805H583.632C586.865 727.805 589.483 730.423 589.483 733.656V890.989C589.483 894.221 586.865 896.842 583.632 896.842Z" fill="#82D9FF"/>
<path d="M496.877 736.827C496.877 735.213 498.187 733.901 499.802 733.901H589.483V733.656C589.483 730.423 586.865 727.805 583.632 727.805H496.877C493.645 727.805 491.026 730.423 491.026 733.656V890.989C491.026 894.221 493.645 896.839 496.877 896.839V736.827Z" fill="#CAF4FF"/>
<path d="M589.499 733.661V748.464H491.032V733.661C491.032 730.415 493.636 727.811 496.883 727.811H583.648C586.865 727.811 589.499 730.415 589.499 733.661Z" fill="#F9DD9D"/>
<path d="M589.499 870.83V890.986C589.499 894.233 586.865 896.837 583.648 896.837H496.883C493.636 896.837 491.032 894.233 491.032 890.986V870.83H589.499Z" fill="#F9DD9D"/>
<path d="M491.032 870.83H496.883V896.837C493.636 896.837 491.032 894.233 491.032 890.986V870.83Z" fill="#FFEECF"/>
<path d="M589.499 733.661V733.896H499.808C498.198 733.896 496.883 735.213 496.883 736.821V748.464H491.032V733.661C491.032 730.415 493.636 727.811 496.883 727.811H583.648C586.865 727.811 589.499 730.415 589.499 733.661Z" fill="#FFEECF"/>
<path d="M583.633 898.305H496.877C492.846 898.305 489.564 895.022 489.564 890.992V733.656C489.564 729.625 492.846 726.342 496.877 726.342H583.633C587.663 726.342 590.946 729.625 590.946 733.656V890.989C590.946 895.022 587.666 898.305 583.633 898.305ZM496.877 729.268C494.457 729.268 492.489 731.236 492.489 733.656V890.989C492.489 893.407 494.457 895.377 496.877 895.377H583.633C586.052 895.377 588.021 893.407 588.021 890.989V733.656C588.021 731.236 586.052 729.268 583.633 729.268H496.877Z" fill="#63312D"/>
<path d="M598.145 727.805H583.635C586.868 727.805 589.486 730.423 589.486 733.656V890.989C589.486 894.221 586.868 896.839 583.635 896.839H598.145C601.377 896.839 603.996 894.221 603.996 890.989V733.656C603.996 730.426 601.374 727.805 598.145 727.805Z" fill="#EFC36A"/>
<path d="M598.145 898.305H583.635C582.828 898.305 582.173 897.649 582.173 896.842C582.173 896.034 582.828 895.38 583.635 895.38C586.055 895.38 588.023 893.41 588.023 890.992V733.656C588.023 731.236 586.055 729.268 583.635 729.268C582.828 729.268 582.173 728.612 582.173 727.805C582.173 726.998 582.828 726.342 583.635 726.342H598.145C602.177 726.342 605.458 729.625 605.458 733.656V890.992C605.458 895.022 602.177 898.305 598.145 898.305ZM589.48 895.38H598.145C600.565 895.38 602.533 893.41 602.533 890.992V733.656C602.533 731.236 600.565 729.268 598.145 729.268H589.483C590.402 730.49 590.949 732.012 590.949 733.656V890.992C590.946 892.636 590.402 894.157 589.48 895.38Z" fill="#63312D"/>
<path d="M491.026 746.992H589.483V749.918H491.026V746.992Z" fill="#63312D"/>
<path d="M491.026 869.367H589.483V872.293H491.026V869.367Z" fill="#63312D"/>
<path d="M535.465 879.149H545.072V888.756H535.465V879.149Z" fill="#F8F3F3"/>
<path d="M545.068 890.216H535.462C534.655 890.216 533.999 889.56 533.999 888.753V879.149C533.999 878.342 534.655 877.686 535.462 877.686H545.068C545.876 877.686 546.53 878.342 546.53 879.149V888.753C546.53 889.56 545.876 890.216 545.068 890.216ZM536.924 887.291H543.605V880.612H536.924V887.291Z" fill="#63312D"/>
<path d="M510.722 748.455L491.468 780.876H511.167L530.418 748.455H510.722Z" fill="#F9A287"/>
<path d="M511.167 782.339H491.471C490.944 782.339 490.458 782.055 490.198 781.602C489.938 781.145 489.944 780.584 490.212 780.131L509.467 747.709C509.731 747.264 510.207 746.992 510.725 746.992H530.421C530.948 746.992 531.434 747.275 531.694 747.729C531.954 748.185 531.948 748.748 531.68 749.201L512.425 781.622C512.162 782.066 511.682 782.339 511.167 782.339ZM494.039 779.414H510.334L527.85 749.918H511.556L494.039 779.414Z" fill="#63312D"/>
<path d="M491.026 748.455L471.772 780.876H491.468L510.722 748.455H491.026Z" fill="#F8F3F3"/>
<path d="M491.468 782.339H471.772C471.245 782.339 470.759 782.055 470.499 781.602C470.239 781.145 470.245 780.584 470.513 780.131L489.768 747.709C490.031 747.264 490.508 746.992 491.026 746.992H510.722C511.249 746.992 511.735 747.275 511.995 747.729C512.255 748.185 512.249 748.748 511.981 749.201L492.726 781.622C492.462 782.066 491.985 782.339 491.468 782.339ZM474.343 779.414H490.636L508.154 749.918H491.859L474.343 779.414Z" fill="#63312D"/>
<path d="M550.114 748.455L530.862 780.876H550.56L569.81 748.455H550.114Z" fill="#F9A287"/>
<path d="M550.56 782.339H530.862C530.337 782.339 529.851 782.055 529.591 781.602C529.33 781.145 529.335 780.584 529.605 780.131L548.86 747.709C549.123 747.264 549.6 746.992 550.117 746.992H569.814C570.34 746.992 570.826 747.275 571.086 747.729C571.347 748.185 571.341 748.748 571.071 749.201L551.817 781.622C551.551 782.066 551.074 782.339 550.56 782.339ZM533.432 779.414H549.726L567.242 749.918H550.948L533.432 779.414Z" fill="#63312D"/>
<path d="M589.499 748.455H569.81L550.56 780.876H570.247L589.499 748.455Z" fill="#F8F3F3"/>
<path d="M570.247 782.339H550.56C550.033 782.339 549.547 782.055 549.287 781.602C549.026 781.145 549.033 780.584 549.301 780.131L568.556 747.709C568.819 747.264 569.296 746.992 569.814 746.992H589.502C590.027 746.992 590.513 747.275 590.773 747.729C591.034 748.185 591.029 748.748 590.759 749.201L571.504 781.622C571.241 782.066 570.761 782.339 570.247 782.339V782.339ZM553.128 779.414H569.413L586.929 749.918H570.644L553.128 779.414Z" fill="#63312D"/>
<path d="M570.256 780.876H578.627L589.499 762.569V748.455L570.256 780.876Z" fill="#D1D1D1"/>
<path d="M578.627 782.339H570.253C569.726 782.339 569.24 782.055 568.98 781.602C568.72 781.145 568.726 780.583 568.992 780.131L588.238 747.709C588.573 747.144 589.246 746.869 589.885 747.045C590.519 747.221 590.962 747.796 590.962 748.455V762.569C590.962 762.833 590.89 763.09 590.756 763.316L579.886 781.622C579.622 782.066 579.143 782.339 578.627 782.339ZM572.824 779.414H577.798L588.039 762.166V753.781L572.824 779.414Z" fill="#63312D"/>
<path d="M530.418 748.455L511.167 780.876H530.862L550.114 748.455H530.418Z" fill="#F8F3F3"/>
<path d="M530.862 782.339H511.167C510.641 782.339 510.155 782.055 509.894 781.602C509.634 781.145 509.64 780.584 509.91 780.131L529.164 747.709C529.427 747.264 529.904 746.992 530.421 746.992H550.117C550.644 746.992 551.13 747.275 551.39 747.729C551.65 748.185 551.644 748.748 551.375 749.201L532.121 781.622C531.855 782.066 531.378 782.339 530.862 782.339ZM513.735 779.414H530.03L547.546 749.918H531.252L513.735 779.414Z" fill="#63312D"/>
<path d="M471.772 780.876V786.797C471.772 792.235 476.18 796.647 481.62 796.647C487.06 796.647 491.471 792.238 491.471 786.797V780.876H471.772Z" fill="#F8F3F3"/>
<path d="M491.468 780.876V786.797C491.468 792.235 495.876 796.647 501.318 796.647C506.756 796.647 511.167 792.238 511.167 786.797V780.876H491.468Z" fill="#F9A287"/>
<path d="M511.167 780.876V786.797C511.167 792.235 515.576 796.647 521.017 796.647C526.454 796.647 530.865 792.238 530.865 786.797V780.876H511.167Z" fill="#F8F3F3"/>
<path d="M530.862 780.876V786.797C530.862 792.235 535.272 796.647 540.713 796.647C546.15 796.647 550.563 792.238 550.563 786.797V780.876H530.862Z" fill="#F9A287"/>
<path d="M481.62 798.11C475.384 798.11 470.309 793.036 470.309 786.797V780.876C470.309 780.069 470.965 779.414 471.772 779.414H491.468C492.275 779.414 492.93 780.069 492.93 780.876V786.797C492.93 793.033 487.858 798.11 481.62 798.11ZM473.234 782.339V786.797C473.234 791.422 476.997 795.184 481.62 795.184C486.246 795.184 490.005 791.422 490.005 786.797V782.339H473.234Z" fill="#63312D"/>
<path d="M501.318 798.11C495.08 798.11 490.005 793.036 490.005 786.797V780.876C490.005 780.069 490.661 779.414 491.468 779.414H511.164C511.971 779.414 512.626 780.069 512.626 780.876V786.797C512.629 793.033 507.554 798.11 501.318 798.11ZM492.93 782.339V786.797C492.93 791.422 496.693 795.184 501.318 795.184C505.941 795.184 509.704 791.422 509.704 786.797V782.339H492.93Z" fill="#63312D"/>
<path d="M521.014 798.11C514.776 798.11 509.704 793.036 509.704 786.797V780.876C509.704 780.069 510.359 779.414 511.167 779.414H530.862C531.671 779.414 532.325 780.069 532.325 780.876V786.797C532.325 793.033 527.25 798.11 521.014 798.11ZM512.629 782.339V786.797C512.629 791.422 516.392 795.184 521.014 795.184C525.636 795.184 529.4 791.422 529.4 786.797V782.339H512.629Z" fill="#63312D"/>
<path d="M540.71 798.11C534.473 798.11 529.397 793.036 529.397 786.797V780.876C529.397 780.069 530.053 779.414 530.86 779.414H550.557C551.364 779.414 552.02 780.069 552.02 780.876V786.797C552.022 793.033 546.946 798.11 540.71 798.11ZM532.325 782.339V786.797C532.325 791.422 536.087 795.184 540.71 795.184C545.332 795.184 549.097 791.422 549.097 786.797V782.339H532.325Z" fill="#63312D"/>
<path d="M560.406 780.876V796.629L568.787 796.647C574.225 796.647 578.636 792.238 578.636 786.797V780.876H560.406Z" fill="#D1D1D1"/>
<path d="M568.787 798.11L560.403 798.091C559.596 798.091 558.943 797.437 558.943 796.628V780.876C558.943 780.069 559.599 779.414 560.406 779.414H578.636C579.444 779.414 580.099 780.069 580.099 780.876V786.797C580.099 793.033 575.027 798.11 568.787 798.11V798.11ZM561.868 795.169L568.79 795.184C573.412 795.184 577.173 791.422 577.173 786.797V782.339H561.868V795.169Z" fill="#63312D"/>
<path d="M550.56 780.876V786.797C550.56 792.235 554.968 796.647 560.408 796.647C565.846 796.647 570.259 792.238 570.259 786.797V780.876H550.56Z" fill="#F8F3F3"/>
<path d="M560.406 798.11C554.169 798.11 549.094 793.036 549.094 786.797V780.876C549.094 780.069 549.748 779.414 550.557 779.414H570.253C571.06 779.414 571.716 780.069 571.716 780.876V786.797C571.716 793.033 566.642 798.11 560.406 798.11V798.11ZM552.022 782.339V786.797C552.022 791.422 555.783 795.184 560.408 795.184C565.034 795.184 568.793 791.422 568.793 786.797V782.339H552.022Z" fill="#63312D"/>
<path d="M509.175 808.667H571.338V870.83H509.175V808.667Z" fill="#52B8D9"/>
<path d="M571.338 872.293H509.175C508.367 872.293 507.713 871.637 507.713 870.83V808.667C507.713 807.86 508.367 807.204 509.175 807.204H571.338C572.145 807.204 572.801 807.86 572.801 808.667V870.83C572.801 871.637 572.145 872.293 571.338 872.293ZM510.638 869.367H569.876V810.13H510.638V869.367Z" fill="#63312D"/>
<path d="M509.175 819.933H571.338V822.858H509.175V819.933Z" fill="#63312D"/>
<path d="M538.794 821.395H541.72V870.83H538.794V821.395Z" fill="#63312D"/>
<path d="M531.49 839.749H534.415V846.111H531.49V839.749Z" fill="#63312D"/>
<path d="M546.095 839.749H549.02V846.111H546.095V839.749Z" fill="#63312D"/>
</g>
<g clip-path="url(#clip2)">
<path d="M598.905 262.998L571.657 290.247C571.654 284.148 570.299 278.26 567.868 272.891L579.522 261.237C581.957 258.804 581.957 254.859 579.522 252.425C577.088 249.992 573.144 249.992 570.713 252.425L560.936 262.2C558.177 259.092 554.958 256.38 551.343 254.174L575.999 229.518C578.432 227.084 578.432 223.139 575.999 220.707V220.705C573.565 218.272 569.623 218.272 567.189 220.707L538.83 249.063C538.606 249.011 538.398 248.936 538.171 248.887C535.219 248.254 532.273 247.959 529.37 247.952L547.804 229.518C550.237 227.084 550.237 223.141 547.804 220.707C545.37 218.272 541.425 218.272 538.993 220.707L499.343 260.355L499.36 260.374C493.77 265.955 489.649 273.141 487.873 281.44C482.974 304.322 497.549 326.838 520.429 331.741C535.007 334.861 549.42 330.054 559.239 320.252L559.256 320.267L607.716 271.807C610.149 269.376 610.149 265.43 607.716 262.996C605.283 260.565 601.339 260.565 598.905 262.998V262.998Z" fill="#FF927D"/>
<path d="M529.331 335.179C526.2 335.179 523.043 334.851 519.908 334.179C495.722 328.997 480.258 305.106 485.438 280.92C487.222 272.579 491.337 264.961 497.348 258.865L497.582 258.594L537.232 218.946C540.521 215.653 546.271 215.65 549.566 218.946C552.969 222.347 552.969 227.88 549.566 231.281L535.021 245.824C536.042 245.954 537.052 246.12 538.051 246.319L565.426 218.946C568.829 215.545 574.357 215.545 577.76 218.943C581.162 222.345 581.162 227.88 577.76 231.281L555.263 253.777C557.302 255.226 559.216 256.847 560.99 258.623L568.95 250.664C572.24 247.372 577.989 247.369 581.285 250.663C584.686 254.065 584.686 259.598 581.285 262.999L570.824 273.457C572.301 277.074 573.292 280.797 573.784 284.596L597.142 261.235C600.547 257.837 606.079 257.84 609.478 261.235C611.127 262.884 612.034 265.074 612.034 267.404C612.034 269.734 611.127 271.924 609.478 273.571L561.019 322.03L560.751 322.262C552.233 330.637 540.962 335.179 529.331 335.179V335.179ZM501.352 261.871L501.122 262.138C495.656 267.594 491.919 274.45 490.31 281.964C485.707 303.462 499.454 324.699 520.954 329.304C534.187 332.145 547.854 328.099 557.481 318.489L557.736 318.267L605.956 270.046C606.662 269.341 607.051 268.401 607.051 267.404C607.051 266.404 606.662 265.466 605.956 264.76C604.495 263.301 602.127 263.306 600.667 264.76L573.419 292.008C572.705 292.723 571.634 292.934 570.704 292.549C569.774 292.162 569.165 291.255 569.165 290.247C569.164 284.636 567.963 279.141 565.598 273.919C565.17 272.973 565.371 271.862 566.107 271.129L577.761 259.474C579.219 258.017 579.219 255.645 577.761 254.188C576.35 252.776 573.887 252.778 572.475 254.188L562.7 263.962C562.215 264.448 561.589 264.726 560.865 264.692C560.177 264.67 559.528 264.368 559.074 263.855C556.444 260.893 553.408 258.352 550.047 256.301C549.394 255.903 548.959 255.227 548.869 254.47C548.778 253.71 549.042 252.952 549.582 252.412L574.238 227.755C574.944 227.048 575.333 226.111 575.333 225.112C575.333 224.113 574.944 223.175 574.238 222.471C572.783 221.012 570.407 221.01 568.951 222.469L540.594 250.825C539.988 251.433 539.112 251.677 538.277 251.494L537.822 251.372C534.963 250.748 532.173 250.452 529.366 250.445C528.36 250.442 527.452 249.834 527.067 248.903C526.686 247.973 526.897 246.902 527.61 246.191L546.043 227.755C546.749 227.048 547.138 226.111 547.138 225.112C547.138 224.113 546.749 223.177 546.043 222.469C544.631 221.058 542.168 221.056 540.758 222.468L501.352 261.871Z" fill="#54596E"/>
<path d="M598.906 224.23L584.809 238.328C582.374 240.761 582.377 244.706 584.809 247.139C587.241 249.572 591.187 249.572 593.621 247.139L607.717 233.042C610.15 230.609 610.15 226.663 607.717 224.23C605.286 221.799 601.34 221.798 598.906 224.23V224.23Z" fill="#FF927D"/>
<path d="M589.214 251.453C586.982 251.453 584.747 250.601 583.048 248.903C579.645 245.499 579.646 239.965 583.048 236.565L597.145 222.469C598.793 220.821 600.984 219.914 603.312 219.914C605.644 219.914 607.834 220.821 609.478 222.469C611.127 224.116 612.034 226.305 612.034 228.635C612.034 230.965 611.127 233.156 609.478 234.804L595.382 248.902C593.683 250.601 591.448 251.453 589.214 251.453ZM603.312 224.898C602.314 224.898 601.374 225.287 600.669 225.993L586.571 240.09C585.112 241.548 585.112 243.919 586.571 245.377C588.034 246.837 590.401 246.832 591.859 245.377L605.955 231.279C606.661 230.573 607.05 229.633 607.05 228.635C607.05 227.638 606.661 226.699 605.955 225.994C605.249 225.287 604.309 224.898 603.312 224.898V224.898ZM598.906 224.23H598.93H598.906Z" fill="#54596E"/>
<path d="M609.403 195.351L590.019 214.733C587.585 217.167 583.641 217.167 581.207 214.733C578.775 212.3 578.775 208.356 581.207 205.922L600.59 186.538C603.024 184.105 606.969 184.105 609.403 186.538C611.834 188.971 611.834 192.917 609.403 195.351V195.351Z" fill="#FF927D"/>
<path d="M585.614 219.047C583.38 219.047 581.145 218.197 579.444 216.496C576.044 213.096 576.044 207.562 579.444 204.161L598.829 184.777C602.236 181.375 607.769 181.377 611.165 184.777C614.565 188.177 614.565 193.71 611.165 197.111V197.112L591.782 216.496C590.079 218.197 587.846 219.047 585.614 219.047V219.047ZM604.999 187.208C604.04 187.208 603.083 187.572 602.353 188.301L582.969 207.684C581.513 209.142 581.513 211.513 582.969 212.971C584.432 214.429 586.799 214.428 588.257 212.971L607.642 193.59C609.096 192.131 609.096 189.76 607.642 188.301C606.912 187.572 605.955 187.208 604.999 187.208V187.208ZM609.403 195.351H609.427H609.403Z" fill="#54596E"/>
<path d="M533.002 281.63L528.018 289.106H537.986" fill="#FF927D"/>
<path d="M537.986 291.599H528.018C527.097 291.599 526.253 291.093 525.821 290.281C525.387 289.472 525.436 288.489 525.945 287.725L530.929 280.248C531.689 279.103 533.233 278.791 534.385 279.558C535.53 280.321 535.84 281.868 535.075 283.013L532.674 286.615H537.986C539.363 286.615 540.479 287.73 540.479 289.106C540.479 290.484 539.363 291.599 537.986 291.599V291.599Z" fill="#54596E"/>
<path d="M503.096 281.63L508.081 289.106H498.112" fill="#FF927D"/>
<path d="M508.081 291.599H498.112C496.734 291.599 495.621 290.482 495.621 289.106C495.621 287.73 496.734 286.614 498.112 286.614H503.425L501.022 283.013C500.258 281.868 500.569 280.319 501.714 279.556C502.861 278.791 504.405 279.103 505.171 280.248L510.155 287.725C510.662 288.489 510.712 289.471 510.279 290.281C509.845 291.091 509.001 291.599 508.081 291.599Z" fill="#54596E"/>
<path d="M508.081 314.027L518.049 309.043L533.002 314.027" fill="#FF927D"/>
<path d="M533.002 316.521C532.741 316.521 532.476 316.48 532.213 316.391L518.241 311.734L509.195 316.257C507.963 316.872 506.468 316.374 505.851 315.142C505.235 313.91 505.734 312.414 506.966 311.798L516.934 306.814C517.526 306.519 518.207 306.469 518.837 306.679L533.791 311.663C535.095 312.099 535.801 313.511 535.365 314.816C535.017 315.86 534.046 316.521 533.002 316.521Z" fill="#54596E"/>
</g>
<g clip-path="url(#clip3)">
<path d="M635.016 770.189H780.711V892.227H635.016V770.189Z" fill="#FCE8CB"/>
<path d="M780.711 769.093H635.016C634.411 769.093 633.92 769.582 633.92 770.189V816.334C633.92 816.939 634.411 817.429 635.016 817.429C635.621 817.429 636.112 816.939 636.112 816.334V771.285H779.615V891.131H636.112V826.322C636.112 825.717 635.621 825.226 635.016 825.226C634.411 825.226 633.92 825.717 633.92 826.322V892.227C633.92 892.834 634.411 893.323 635.016 893.323H780.711C781.316 893.323 781.807 892.834 781.807 892.227V770.189C781.807 769.582 781.316 769.093 780.711 769.093Z" fill="#3A312A"/>
<path d="M679.671 811.979H651.439C648.319 811.979 645.792 814.507 645.792 817.625V892.227H685.317V817.625C685.317 814.507 682.79 811.979 679.671 811.979Z" fill="#8AC6DD"/>
<path d="M679.671 810.883H651.439C647.721 810.883 644.696 813.908 644.696 817.625V892.227C644.696 892.834 645.187 893.323 645.792 893.323H685.317C685.922 893.323 686.413 892.834 686.413 892.227V817.625C686.413 813.908 683.388 810.883 679.671 810.883ZM684.221 891.131H646.888V817.625C646.888 815.116 648.929 813.074 651.439 813.074H679.671C682.181 813.074 684.221 815.116 684.221 817.625V891.131Z" fill="#3A312A"/>
<path d="M763.286 811.976H702.803C699.685 811.976 697.157 814.503 697.157 817.621V878.103C697.157 881.223 699.685 883.75 702.803 883.75H763.286C766.403 883.75 768.932 881.223 768.932 878.103V817.621C768.932 814.503 766.403 811.976 763.286 811.976Z" fill="#8AC6DD"/>
<path d="M763.284 810.88H702.803C699.084 810.88 696.061 813.904 696.061 817.621V878.103C696.061 881.822 699.084 884.847 702.803 884.847H763.284C767.003 884.847 770.028 881.822 770.028 878.103V817.621C770.028 813.904 767.003 810.88 763.284 810.88ZM767.836 878.103C767.836 880.613 765.794 882.655 763.284 882.655H702.803C700.293 882.655 698.252 880.613 698.252 878.103V817.621C698.252 815.112 700.294 813.072 702.803 813.072H763.284C765.794 813.072 767.836 815.112 767.836 817.621V878.103Z" fill="#3A312A"/>
<path d="M784.996 892.227H630.731C628.365 892.227 626.446 894.147 626.446 896.512C626.446 898.88 628.365 900.798 630.731 900.798H784.996C787.362 900.798 789.282 898.88 789.282 896.512C789.282 894.147 787.362 892.227 784.996 892.227V892.227Z" fill="#87796F"/>
<path d="M784.997 891.131H630.731C627.763 891.131 625.35 893.546 625.35 896.512C625.35 899.479 627.764 901.893 630.731 901.893H784.997C787.965 901.893 790.378 899.479 790.378 896.512C790.378 893.546 787.965 891.131 784.997 891.131V891.131ZM784.997 899.702H630.731C628.973 899.702 627.542 898.272 627.542 896.512C627.542 894.753 628.973 893.323 630.731 893.323H784.997C786.755 893.323 788.186 894.753 788.186 896.512C788.186 898.272 786.755 899.702 784.997 899.702Z" fill="#3A312A"/>
<path d="M763.571 737.963H652.156L626.446 770.186H789.282L763.571 737.963Z" fill="#F16C7A"/>
<path d="M790.138 769.504L764.428 737.279C764.22 737.019 763.903 736.868 763.571 736.868H741.674C741.069 736.868 740.578 737.357 740.578 737.964C740.578 738.569 741.069 739.06 741.674 739.06H763.043L787.004 769.091H628.723L652.684 739.06H732.013C732.618 739.06 733.108 738.569 733.108 737.964C733.108 737.357 732.618 736.868 732.013 736.868H652.156C651.824 736.868 651.507 737.019 651.299 737.279L625.589 769.504C625.327 769.833 625.276 770.283 625.458 770.662C625.641 771.042 626.025 771.283 626.446 771.283H789.282C789.703 771.283 790.086 771.042 790.269 770.662C790.452 770.283 790.402 769.833 790.138 769.504V769.504Z" fill="#3A312A"/>
<path d="M659.004 770.186V787.924C659.007 787.819 659.013 787.715 659.013 787.61C659.014 796.603 666.303 803.892 675.297 803.892C684.051 803.892 691.192 796.981 691.561 788.317V770.186H659.004Z" fill="#D7E057"/>
<path d="M691.563 769.09H659.004C658.401 769.09 657.908 769.581 657.908 770.186V787.924C657.908 787.987 657.914 788.047 657.924 788.106C658.187 797.461 665.879 804.988 675.296 804.988C684.631 804.988 692.258 797.686 692.657 788.317V770.186C692.659 769.581 692.168 769.09 691.563 769.09ZM675.297 802.796C666.922 802.796 660.11 795.984 660.109 787.609C660.109 787.565 660.106 787.521 660.1 787.476V771.282H690.467V788.27C690.119 796.415 683.455 802.796 675.297 802.796Z" fill="#3A312A"/>
<path d="M626.446 770.186V787.609C626.446 796.602 633.736 803.892 642.73 803.892C651.617 803.892 658.836 796.771 659.004 787.924V770.186H626.446Z" fill="#F16C7A"/>
<path d="M659.004 769.09H626.446C625.841 769.09 625.35 769.581 625.35 770.186V787.609C625.35 797.192 633.147 804.988 642.73 804.988C652.129 804.988 659.922 797.344 660.1 787.924V770.186C660.1 769.581 659.609 769.09 659.004 769.09ZM657.908 787.903C657.751 796.115 650.943 802.796 642.73 802.796C634.355 802.796 627.542 795.982 627.542 787.608V771.282H657.908V787.903Z" fill="#3A312A"/>
<path d="M756.677 770.186V788.665C756.7 788.315 756.714 787.964 756.714 787.61C756.716 796.603 764.006 803.892 772.999 803.892C781.991 803.892 789.282 796.602 789.282 787.609V770.186H756.677Z" fill="#F16C7A"/>
<path d="M789.282 769.09H756.676C756.071 769.09 755.58 769.581 755.58 770.186V788.665C755.58 788.832 755.617 788.989 755.684 789.13C756.458 798.004 763.928 804.989 772.997 804.989C782.581 804.989 790.378 797.192 790.378 787.61V770.186C790.378 769.581 789.887 769.09 789.282 769.09V769.09ZM788.186 787.608C788.186 795.982 781.372 802.796 772.997 802.796C764.623 802.796 757.81 795.984 757.81 787.609C757.81 787.509 757.797 787.414 757.772 787.322V771.282H788.186V787.608Z" fill="#3A312A"/>
<path d="M724.119 770.186V788.534C724.136 788.227 724.147 787.919 724.147 787.608C724.147 796.602 731.437 803.892 740.43 803.892C749.069 803.892 756.132 797.164 756.677 788.664V770.186H724.119Z" fill="#D7E057"/>
<path d="M756.677 769.09H724.119C723.515 769.09 723.023 769.581 723.023 770.186V788.534C723.023 788.678 723.051 788.815 723.101 788.94C723.783 797.904 731.295 804.988 740.43 804.988C749.571 804.988 757.187 797.847 757.772 788.664V770.186C757.773 769.581 757.282 769.09 756.677 769.09ZM740.43 802.796C732.055 802.796 725.243 795.982 725.243 787.608C725.243 787.523 725.233 787.441 725.215 787.362V771.282H755.581L755.583 788.595C755.072 796.557 748.418 802.796 740.43 802.796V802.796Z" fill="#3A312A"/>
<path d="M691.563 770.186V788.317C691.573 788.081 691.58 787.846 691.58 787.609C691.58 796.602 698.87 803.892 707.863 803.892C716.546 803.892 723.641 797.097 724.119 788.534V770.186H691.563Z" fill="#F16C7A"/>
<path d="M724.119 769.09H691.561C690.956 769.09 690.466 769.581 690.466 770.186V788.317C690.466 788.428 690.483 788.537 690.514 788.638C691.048 797.743 698.625 804.988 707.863 804.988C717.077 804.988 724.698 797.787 725.215 788.534V770.186C725.215 769.581 724.724 769.09 724.119 769.09ZM707.863 802.796C699.488 802.796 692.676 795.982 692.676 787.608C692.676 787.541 692.669 787.475 692.659 787.411V771.282H723.024L723.026 788.472C722.576 796.505 715.915 802.796 707.863 802.796Z" fill="#3A312A"/>
<path d="M758.274 847.873C758.274 861.996 746.826 873.444 732.703 873.444C718.582 873.444 707.132 861.996 707.132 847.873C707.132 833.751 718.582 822.302 732.703 822.302C746.826 822.302 758.274 833.751 758.274 847.873Z" fill="#FCE8CB"/>
<path d="M732.703 821.207C718 821.207 706.036 833.169 706.036 847.873C706.036 862.577 718 874.54 732.703 874.54C747.408 874.54 759.37 862.577 759.37 847.873C759.37 833.169 747.408 821.207 732.703 821.207V821.207ZM732.703 872.348C719.209 872.348 708.228 861.368 708.228 847.873C708.228 834.377 719.209 823.398 732.703 823.398C746.199 823.398 757.178 834.377 757.178 847.873C757.178 861.368 746.199 872.348 732.703 872.348Z" fill="#3A312A"/>
<path d="M772.996 804.987C771.499 804.987 770.045 804.797 768.657 804.431V813.55C769.518 814.683 770.031 816.085 770.031 817.619V878.105C770.031 879.632 769.518 881.043 768.657 882.174V891.131H779.616V803.679C777.578 804.52 775.342 804.987 772.996 804.987V804.987Z" fill="#DECAAD"/>
<path d="M763.046 739.059H752.087L776.042 769.093H787.001L763.046 739.059Z" fill="#D34E5C"/>
<path d="M777.227 771.285V787.606C777.227 794.058 773.194 799.574 767.516 801.773C769.212 802.429 771.068 802.795 772.996 802.795C781.376 802.795 788.186 795.987 788.186 787.606V771.285H777.227Z" fill="#D34E5C"/>
<path d="M732.608 847.15C727.65 847.15 723.632 852.03 723.632 856.145C723.632 860.261 727.65 860.978 732.608 860.978C737.566 860.978 741.585 860.259 741.585 856.145C741.585 852.03 737.565 847.15 732.608 847.15Z" fill="#87796F"/>
<path d="M732.608 846.054C726.935 846.054 722.536 851.479 722.536 856.145C722.536 862.074 729.594 862.074 732.608 862.074C735.621 862.074 742.68 862.074 742.68 856.145C742.68 851.479 738.281 846.054 732.608 846.054ZM732.608 859.882C726.068 859.882 724.728 858.388 724.728 856.145C724.728 852.589 728.365 848.246 732.608 848.246C736.851 848.246 740.489 852.589 740.489 856.145C740.489 858.388 739.149 859.882 732.608 859.882Z" fill="#3A312A"/>
<path d="M732.608 834.991C730.667 834.991 729.093 837.011 729.093 839.503C729.093 841.994 730.667 844.013 732.608 844.013C734.55 844.013 736.124 841.994 736.124 839.503C736.124 837.01 734.55 834.991 732.608 834.991V834.991Z" fill="#87796F"/>
<path d="M732.608 833.895C730.066 833.895 727.996 836.411 727.996 839.503C727.996 842.595 730.065 845.109 732.608 845.109C735.152 845.109 737.219 842.595 737.219 839.503C737.219 836.411 735.152 833.895 732.608 833.895ZM732.608 842.918C731.296 842.918 730.187 841.354 730.187 839.501C730.187 837.651 731.296 836.087 732.608 836.087C733.919 836.087 735.028 837.651 735.028 839.501C735.028 841.354 733.919 842.918 732.608 842.918Z" fill="#3A312A"/>
<path d="M725.711 841.434C724.547 839.231 722.212 838.18 720.494 839.088C718.778 839.994 718.33 842.515 719.494 844.719C720.658 846.922 722.993 847.972 724.709 847.066C726.426 846.158 726.874 843.637 725.711 841.434V841.434Z" fill="#87796F"/>
<path d="M726.68 840.921C726.002 839.641 724.966 838.638 723.761 838.094C722.459 837.509 721.119 837.518 719.983 838.117C717.736 839.306 717.081 842.497 718.525 845.229C719.601 847.264 721.539 848.481 723.387 848.481C724.022 848.48 724.648 848.337 725.223 848.033C726.358 847.434 727.121 846.329 727.369 844.927C727.602 843.624 727.356 842.201 726.68 840.921ZM725.212 844.543C725.083 845.268 724.722 845.818 724.199 846.095C723.037 846.706 721.328 845.843 720.463 844.206C719.598 842.569 719.846 840.667 721.007 840.055C721.258 839.922 721.539 839.857 721.838 839.857C722.164 839.857 722.511 839.935 722.86 840.094C723.624 840.436 724.291 841.094 724.741 841.944C725.192 842.796 725.357 843.719 725.212 844.543V844.543Z" fill="#3A312A"/>
<path d="M718.477 848.139C716.493 846.63 713.932 846.662 712.757 848.207C711.583 849.754 712.238 852.228 714.221 853.737C716.205 855.244 718.766 855.212 719.941 853.667C721.116 852.121 720.46 849.646 718.477 848.139V848.139Z" fill="#87796F"/>
<path d="M719.139 847.266C717.987 846.389 716.624 845.909 715.3 845.933C713.875 845.95 712.662 846.524 711.885 847.545C711.108 848.567 710.881 849.89 711.246 851.268C711.586 852.547 712.406 853.734 713.559 854.609C714.727 855.496 716.071 855.934 717.326 855.934C718.721 855.934 720.005 855.395 720.814 854.329C722.352 852.305 721.602 849.136 719.139 847.266ZM719.069 853.003C718.274 854.048 716.36 853.984 714.885 852.863C714.119 852.281 713.579 851.515 713.364 850.706C713.175 849.995 713.27 849.343 713.629 848.871C713.989 848.397 714.591 848.133 715.326 848.123H715.366C716.191 848.123 717.058 848.438 717.813 849.011C719.287 850.131 719.862 851.959 719.069 853.003Z" fill="#3A312A"/>
<path d="M744.775 839.088C743.059 838.18 740.724 839.231 739.56 841.434C738.395 843.637 738.843 846.158 740.561 847.064C742.278 847.971 744.612 846.92 745.777 844.719C746.94 842.515 746.492 839.994 744.775 839.088Z" fill="#87796F"/>
<path d="M745.287 838.119C744.153 837.518 742.81 837.511 741.512 838.094C740.305 838.638 739.269 839.641 738.592 840.923C737.916 842.203 737.67 843.625 737.902 844.927C738.151 846.331 738.915 847.434 740.049 848.033C740.624 848.337 741.249 848.481 741.884 848.481C743.732 848.481 745.671 847.264 746.746 845.229C748.19 842.497 747.536 839.306 745.287 838.119V838.119ZM744.808 844.206C743.942 845.843 742.235 846.709 741.072 846.097C740.547 845.819 740.188 845.268 740.059 844.544C739.912 843.719 740.079 842.796 740.53 841.946C740.978 841.097 741.646 840.437 742.411 840.095C742.76 839.937 743.107 839.858 743.432 839.858C743.731 839.858 744.013 839.924 744.263 840.056C745.423 840.669 745.673 842.569 744.808 844.206V844.206Z" fill="#3A312A"/>
<path d="M752.335 848.207C751.161 846.662 748.601 846.63 746.616 848.139C744.632 849.646 743.976 852.121 745.15 853.667C746.326 855.212 748.886 855.244 750.87 853.737C752.853 852.228 753.51 849.754 752.335 848.207V848.207Z" fill="#87796F"/>
<path d="M753.207 847.545C752.431 846.522 751.218 845.95 749.792 845.931C749.771 845.931 749.748 845.931 749.727 845.931C748.424 845.931 747.087 846.404 745.954 847.266C743.491 849.136 742.74 852.306 744.279 854.329C745.055 855.352 746.268 855.926 747.693 855.943H747.759C749.062 855.943 750.399 855.471 751.533 854.609C753.995 852.738 754.747 849.569 753.207 847.545ZM750.208 852.863C749.441 853.446 748.572 853.747 747.72 853.751C746.986 853.742 746.383 853.477 746.024 853.005C745.23 851.959 745.805 850.131 747.279 849.012C748.034 848.439 748.902 848.125 749.728 848.125H749.767C750.502 848.133 751.105 848.399 751.463 848.871C752.257 849.915 751.682 851.743 750.208 852.863V852.863Z" fill="#3A312A"/>
</g>
<g clip-path="url(#clip4)">
<path d="M1385.87 1124.86L1406.8 1082.37L1415.74 1086.78L1394.81 1129.26L1385.87 1124.86Z" fill="#999999"/>
<path d="M1385.88 1124.86L1384.77 1127.09L1393.72 1131.5C1394.95 1132.11 1396.45 1131.6 1397.06 1130.36L1417.99 1087.88C1418.28 1087.29 1418.33 1086.6 1418.12 1085.98C1417.91 1085.35 1417.45 1084.83 1416.86 1084.54L1407.91 1080.14C1406.68 1079.53 1405.18 1080.03 1404.58 1081.27L1383.64 1123.75C1383.35 1124.34 1383.31 1125.04 1383.52 1125.66C1383.73 1126.28 1384.19 1126.8 1384.77 1127.09L1385.88 1124.86L1388.11 1125.96L1407.95 1085.71L1412.42 1087.91L1393.69 1125.92L1386.98 1122.62L1385.88 1124.86L1388.11 1125.96L1385.88 1124.86Z" fill="#54596E"/>
<path d="M1286.16 1086.77L1295.11 1082.37L1316.03 1124.85L1307.09 1129.26L1286.16 1086.77Z" fill="#999999"/>
<path d="M1316.04 1124.86L1314.94 1122.62L1308.24 1125.92L1289.5 1087.91L1293.97 1085.71L1313.81 1125.96L1316.04 1124.86L1314.94 1122.62L1316.04 1124.86L1318.28 1123.75L1297.34 1081.27C1296.74 1080.03 1295.24 1079.53 1294.01 1080.13L1285.06 1084.54C1284.47 1084.83 1284.02 1085.35 1283.8 1085.97C1283.59 1086.6 1283.64 1087.29 1283.93 1087.88L1304.86 1130.36C1305.47 1131.6 1306.97 1132.1 1308.2 1131.5L1317.14 1127.09C1317.74 1126.8 1318.19 1126.29 1318.4 1125.66C1318.62 1125.03 1318.57 1124.35 1318.28 1123.75L1316.04 1124.86Z" fill="#54596E"/>
<path d="M1403.31 1124.51H1380.87V1099.58H1321.05V1124.51H1298.61C1284.84 1124.51 1273.68 1135.67 1273.68 1149.44H1428.24C1428.24 1135.67 1417.08 1124.51 1403.31 1124.51Z" fill="#FF9999"/>
<path d="M1403.31 1124.51V1122.02H1383.37V1099.58C1383.37 1098.93 1383.1 1098.29 1382.64 1097.82C1382.17 1097.36 1381.53 1097.09 1380.87 1097.09H1321.05C1320.39 1097.09 1319.75 1097.36 1319.28 1097.82C1318.82 1098.29 1318.55 1098.93 1318.55 1099.58V1122.02L1298.61 1122.02C1283.47 1122.02 1271.19 1134.29 1271.19 1149.44C1271.19 1150.1 1271.46 1150.74 1271.92 1151.2C1272.39 1151.67 1273.03 1151.93 1273.68 1151.93H1428.24C1428.89 1151.93 1429.54 1151.67 1430 1151.2C1430.46 1150.74 1430.73 1150.1 1430.73 1149.44C1430.73 1134.29 1418.45 1122.02 1403.31 1122.02V1127.01C1409.51 1127.01 1415.1 1129.51 1419.17 1133.58C1423.24 1137.64 1425.74 1143.24 1425.74 1149.44H1428.24V1146.95H1273.68V1149.44H1276.18C1276.18 1143.24 1278.68 1137.64 1282.75 1133.58C1286.81 1129.51 1292.41 1127.01 1298.61 1127.01H1321.05C1321.7 1127.01 1322.35 1126.74 1322.81 1126.28C1323.27 1125.81 1323.54 1125.17 1323.54 1124.51V1102.08H1378.38V1124.51C1378.38 1125.17 1378.65 1125.81 1379.11 1126.28C1379.58 1126.74 1380.22 1127.01 1380.87 1127.01H1403.31V1124.51Z" fill="#54596E"/>
<path d="M1385.48 1014.24C1377.79 1000.23 1362.7 997.379 1350.96 997.379C1339.22 997.379 1324.13 1000.23 1316.44 1014.24C1308.74 1028.26 1306.09 1041.31 1306.09 1057.21C1306.09 1089 1328.69 1124.51 1350.96 1124.51C1373.23 1124.51 1395.83 1089 1395.83 1057.21C1395.83 1041.31 1393.18 1028.26 1385.48 1014.24" fill="#FF9999"/>
<path d="M1385.48 1014.24L1387.67 1013.04C1383.53 1005.47 1377.28 1000.85 1370.66 998.238C1364.03 995.611 1357.03 994.89 1350.96 994.887C1344.89 994.89 1337.89 995.611 1331.26 998.238C1324.64 1000.85 1318.39 1005.47 1314.25 1013.04C1306.34 1027.42 1303.58 1041.05 1303.6 1057.21C1303.61 1073.69 1309.4 1090.89 1318.09 1104.15C1322.45 1110.78 1327.53 1116.43 1333.09 1120.48C1338.64 1124.53 1344.72 1127 1350.96 1127.01C1357.2 1127 1363.28 1124.53 1368.83 1120.48C1377.16 1114.4 1384.46 1104.74 1389.76 1093.54C1395.04 1082.34 1398.32 1069.57 1398.32 1057.21C1398.34 1041.05 1395.58 1027.42 1387.67 1013.04L1385.48 1014.24L1383.3 1015.44C1390.78 1029.1 1393.32 1041.57 1393.34 1057.21C1393.35 1072.51 1387.84 1088.97 1379.66 1101.42C1375.58 1107.64 1370.84 1112.85 1365.9 1116.45C1360.95 1120.06 1355.85 1122.02 1350.96 1122.02C1346.07 1122.02 1340.98 1120.06 1336.02 1116.45C1328.6 1111.06 1321.67 1102.01 1316.67 1091.41C1311.66 1080.82 1308.58 1068.69 1308.58 1057.21C1308.6 1041.57 1311.15 1029.1 1318.62 1015.44C1322.18 1008.99 1327.32 1005.18 1333.1 1002.87C1338.88 1000.57 1345.29 999.87 1350.96 999.873C1356.63 999.87 1363.04 1000.57 1368.82 1002.87C1374.61 1005.18 1379.75 1008.99 1383.3 1015.44L1385.48 1014.24Z" fill="#54596E"/>
<path d="M1393.17 1061.93C1386.57 1087.11 1368.66 1109.56 1350.96 1109.56C1333.26 1109.56 1315.35 1087.11 1308.75 1061.93C1309.46 1071.97 1312.34 1082.26 1316.67 1091.41C1321.67 1102.01 1328.6 1111.06 1336.02 1116.45C1340.97 1120.06 1346.06 1122.02 1350.95 1122.02H1350.96C1355.85 1122.02 1360.95 1120.06 1365.9 1116.45C1370.84 1112.85 1375.58 1107.64 1379.66 1101.42C1387.01 1090.24 1392.2 1075.83 1393.17 1061.93" fill="#EE9295"/>
<path d="M1395.51 1048.78C1395.11 1053.18 1394.31 1057.59 1393.17 1061.93C1392.2 1075.83 1387.01 1090.24 1379.66 1101.42C1375.58 1107.64 1370.84 1112.85 1365.9 1116.45C1360.95 1120.06 1355.85 1122.02 1350.96 1122.02C1350.96 1122.02 1350.95 1122.02 1350.95 1122.02C1346.06 1122.02 1340.97 1120.06 1336.02 1116.45C1328.6 1111.06 1321.67 1102.01 1316.67 1091.41C1312.35 1082.26 1309.46 1071.97 1308.75 1061.93C1307.62 1057.6 1306.81 1053.18 1306.41 1048.78C1306.21 1051.52 1306.09 1054.31 1306.09 1057.21C1306.09 1089 1328.7 1124.51 1350.96 1124.51C1373.23 1124.51 1395.83 1089 1395.83 1057.21C1395.83 1054.31 1395.71 1051.52 1395.51 1048.78" fill="#54596E"/>
<path d="M1340.99 1054.51C1340.99 1048.65 1340.24 1043.91 1338.02 1038.7C1335.76 1033.41 1329.51 1032.28 1326.03 1032.28C1322.59 1032.28 1318.86 1033.34 1316.6 1038.56C1314.35 1043.78 1313.57 1048.59 1313.57 1054.51C1313.57 1066.36 1322 1079.64 1328.52 1079.64C1334.46 1079.64 1340.99 1066.36 1340.99 1054.51Z" fill="#54596E"/>
<path d="M1323.54 1034.77C1323.54 1034.77 1324.25 1021.48 1317.66 1013.17Z" fill="#FF9999"/>
<path d="M1326.03 1034.9C1326.03 1034.87 1326.06 1034.4 1326.06 1033.61C1326.05 1031.79 1325.93 1028.23 1325.08 1024.16C1324.23 1020.1 1322.67 1015.49 1319.62 1011.62C1318.76 1010.54 1317.19 1010.36 1316.11 1011.22C1315.04 1012.07 1314.86 1013.64 1315.71 1014.72C1318.07 1017.68 1319.46 1021.58 1320.2 1025.18C1320.95 1028.77 1321.07 1032.02 1321.07 1033.61C1321.07 1033.96 1321.06 1034.22 1321.06 1034.4L1321.05 1034.59L1321.05 1034.64C1320.98 1036.01 1322.03 1037.19 1323.41 1037.26C1324.78 1037.33 1325.96 1036.28 1326.03 1034.9Z" fill="#54596E"/>
<path d="M1328.52 1077.15C1328.52 1077.15 1338.5 1092.11 1328.52 1112.05Z" fill="#FF9999"/>
<path d="M1326.45 1078.53L1326.87 1078.26L1326.45 1078.53L1326.45 1078.53L1326.87 1078.26L1326.45 1078.53C1326.56 1078.69 1330.48 1084.83 1330.46 1094.14C1330.46 1098.95 1329.44 1104.63 1326.3 1110.93C1325.68 1112.17 1326.18 1113.66 1327.41 1114.28C1328.64 1114.89 1330.14 1114.39 1330.76 1113.16C1334.26 1106.17 1335.45 1099.66 1335.45 1094.14C1335.44 1083.07 1330.75 1076.01 1330.6 1075.77C1329.84 1074.62 1328.29 1074.31 1327.14 1075.08C1326 1075.84 1325.69 1077.39 1326.45 1078.53V1078.53Z" fill="#54596E"/>
<path d="M1360.93 1054.51C1360.93 1048.65 1361.68 1043.91 1363.9 1038.7C1366.16 1033.41 1372.41 1032.28 1375.89 1032.28C1379.33 1032.28 1383.06 1033.34 1385.32 1038.56C1387.57 1043.78 1388.35 1048.59 1388.35 1054.51C1388.35 1066.36 1379.92 1079.64 1373.4 1079.64C1367.46 1079.64 1360.93 1066.36 1360.93 1054.51V1054.51Z" fill="#54596E"/>
<path d="M1374.89 1055.73C1372.8 1055.22 1370.52 1055.52 1368.79 1056.79L1368.72 1056.83C1367.43 1057.79 1365.54 1056.66 1365.98 1055.12C1366.67 1052.8 1368.42 1050.87 1370.75 1050.13C1375.95 1048.47 1380.74 1052.17 1380.87 1057L1380.68 1057.15L1374.89 1055.73Z" fill="white"/>
<path d="M1327.03 1055.73C1329.12 1055.22 1331.4 1055.52 1333.13 1056.79L1333.2 1056.83C1334.5 1057.79 1336.39 1056.66 1335.94 1055.12C1335.25 1052.8 1333.5 1050.87 1331.17 1050.13C1325.97 1048.47 1321.18 1052.17 1321.05 1057L1321.24 1057.15L1327.03 1055.73Z" fill="white"/>
<path d="M1378.38 1034.77C1378.38 1034.77 1377.67 1021.48 1384.26 1013.17Z" fill="#FF9999"/>
<path d="M1380.87 1034.64L1380.87 1034.59C1380.86 1034.47 1380.85 1034.13 1380.85 1033.61C1380.85 1032.02 1380.97 1028.77 1381.72 1025.18C1382.46 1021.58 1383.85 1017.68 1386.21 1014.72C1387.07 1013.64 1386.88 1012.07 1385.81 1011.22C1384.73 1010.36 1383.16 1010.54 1382.3 1011.62C1379.25 1015.49 1377.69 1020.1 1376.84 1024.16C1375.99 1028.23 1375.87 1031.79 1375.87 1033.61C1375.87 1034.4 1375.89 1034.87 1375.89 1034.9C1375.96 1036.28 1377.14 1037.33 1378.52 1037.26C1379.89 1037.19 1380.94 1036.01 1380.87 1034.64V1034.64Z" fill="#54596E"/>
<path d="M1373.4 1077.15C1373.4 1077.15 1363.42 1092.11 1373.4 1112.05Z" fill="#FF9999"/>
<path d="M1371.32 1075.77C1371.17 1076.01 1366.48 1083.07 1366.47 1094.14C1366.47 1099.66 1367.67 1106.17 1371.16 1113.16C1371.78 1114.39 1373.28 1114.89 1374.51 1114.28C1375.74 1113.66 1376.24 1112.17 1375.63 1110.93C1372.48 1104.63 1371.46 1098.95 1371.46 1094.14C1371.46 1089.33 1372.49 1085.37 1373.51 1082.64C1374.02 1081.28 1374.53 1080.22 1374.9 1079.52C1375.09 1079.17 1375.24 1078.9 1375.34 1078.74L1375.45 1078.56L1375.47 1078.53L1375.07 1078.27L1375.47 1078.53L1375.47 1078.53L1375.07 1078.27L1375.47 1078.53C1376.23 1077.39 1375.92 1075.84 1374.78 1075.08C1373.63 1074.31 1372.08 1074.62 1371.32 1075.77V1075.77Z" fill="#54596E"/>
<path d="M1331.02 1134.48C1326.89 1134.48 1323.55 1131.13 1323.54 1127.01V1122.02C1323.54 1120.64 1322.42 1119.53 1321.05 1119.53C1319.67 1119.53 1318.55 1120.64 1318.55 1122.02V1127.01C1318.56 1133.89 1324.13 1139.47 1331.02 1139.47C1332.39 1139.47 1333.51 1138.35 1333.51 1136.98C1333.51 1135.6 1332.39 1134.48 1331.02 1134.48Z" fill="#54596E"/>
</g>
<g clip-path="url(#clip5)">
<path d="M157.378 157.047H2.8244V149.424C2.8244 136.501 12.0303 125.407 24.7338 123.023L82.5939 112.176L135.785 122.814C148.34 125.327 157.378 136.349 157.378 149.152V157.047Z" fill="#61C5A8"/>
<path d="M157.378 157.047V154.554H5.31629V149.424C5.31629 137.701 13.6707 127.635 25.193 125.474L82.5782 114.715L135.296 125.258C146.687 127.536 154.886 137.538 154.885 149.152V157.047H157.378V154.554V157.047H159.87V149.152C159.87 135.16 149.995 123.116 136.273 120.37L83.0817 109.732C82.7736 109.669 82.4427 109.668 82.1331 109.726L24.273 120.574C10.3914 123.179 0.332481 135.3 0.331055 149.424V157.047C0.331055 157.703 0.59779 158.345 1.06137 158.809C1.52637 159.274 2.16825 159.539 2.82439 159.539H157.378C158.034 159.539 158.676 159.274 159.14 158.81C159.605 158.345 159.87 157.703 159.87 157.047H157.378Z" fill="#54596E"/>
<path d="M80.1005 144.582C63.1892 144.582 49.2762 131.262 48.5459 114.365L47.6943 94.7266H112.507L111.655 114.365C110.925 131.262 97.0118 144.582 80.1005 144.582V144.582Z" fill="#FFD578"/>
<path d="M80.1005 144.582V142.09C64.5244 142.091 51.7082 129.82 51.0364 114.257L50.2975 97.2201H109.904L109.165 114.257C108.493 129.82 95.6767 142.091 80.1005 142.09V147.075C98.3484 147.074 113.355 132.704 114.146 114.472L114.997 94.8351C115.027 94.1605 114.775 93.49 114.308 93.0022C113.84 92.5144 113.183 92.2334 112.507 92.2334H47.6944C47.0183 92.2334 46.3607 92.5144 45.8943 93.0022C45.4278 93.49 45.1754 94.159 45.2039 94.8337L46.0555 114.472C46.8457 132.704 61.8542 147.074 80.1005 147.075V144.582Z" fill="#54596E"/>
<path d="M123.389 24.3885L62.6514 2.49341L35.2433 21.5856C31.1838 23.5655 29.0471 27.7619 29.9942 31.8813L39.2829 72.291L120.961 67.3057L129.648 35.493C130.907 30.8772 128.228 26.123 123.389 24.3885Z" fill="#BFAD88"/>
<path d="M123.389 24.3884L124.234 22.0419L63.4959 0.14827C62.7357 -0.127024 61.8884 -0.014339 61.2265 0.447811L33.817 19.5401L35.242 21.5855L34.1494 19.3446C29.9415 21.3872 27.277 25.4795 27.2784 29.9285C27.2784 30.76 27.3712 31.603 27.5637 32.4403L36.8538 72.85C37.1262 74.0367 38.2189 74.8526 39.4356 74.7785L121.114 69.7932C122.18 69.729 123.083 68.993 123.366 67.9617L132.053 36.1489C132.319 35.1676 132.449 34.1748 132.449 33.1963C132.448 28.2553 129.173 23.8035 124.23 22.0405L123.389 24.3884L122.547 26.7333C125.674 27.8645 127.465 30.5061 127.464 33.1963C127.464 33.7369 127.393 34.2847 127.243 34.8381L119.027 64.925L41.24 69.6734L32.4234 31.322C32.315 30.8528 32.2637 30.3892 32.2637 29.9285C32.2651 27.4965 33.71 25.1158 36.3346 23.8264L36.6669 23.6309L63.0181 5.27472L122.543 26.7333L123.389 24.3884Z" fill="#54596E"/>
<path d="M129.957 72.2908C129.957 76.4216 126.608 79.7694 122.479 79.7694C118.348 79.7694 115 76.4216 115 72.2908C115 68.1614 118.348 64.8123 122.479 64.8123C126.608 64.8123 129.957 68.1614 129.957 72.2908V72.2908Z" fill="#FFD578"/>
<path d="M129.957 72.291H132.449C132.448 66.7823 127.987 62.3206 122.479 62.3206C116.97 62.3206 112.508 66.7823 112.507 72.291C112.508 77.7997 116.97 82.2615 122.479 82.2629C127.987 82.2615 132.448 77.7997 132.449 72.291H127.464C127.46 75.0454 125.232 77.272 122.479 77.2763C119.724 77.272 117.498 75.0454 117.493 72.291C117.498 69.5381 119.724 67.3101 122.479 67.3058C125.232 67.3101 127.46 69.5381 127.464 72.291H129.957Z" fill="#54596E"/>
<path d="M45.201 72.2908C45.201 76.4216 41.8533 79.7694 37.7224 79.7694C33.593 79.7694 30.2453 76.4216 30.2453 72.2908C30.2453 68.1614 33.593 64.8123 37.7224 64.8123C41.8533 64.8123 45.201 68.1614 45.201 72.2908Z" fill="#FFD578"/>
<path d="M45.201 72.291H47.6943C47.6929 66.7823 43.2311 62.3206 37.7224 62.3206C32.2151 62.3206 27.7534 66.7823 27.752 72.291C27.7534 77.7997 32.2151 82.2615 37.7224 82.2629C43.2311 82.2615 47.6929 77.7997 47.6943 72.291H42.7091C42.7034 75.0454 40.4768 77.272 37.7224 77.2763C34.9695 77.272 32.7429 75.0454 32.7372 72.291C32.7429 69.5381 34.9695 67.3101 37.7224 67.3058C40.4768 67.3101 42.7034 69.5381 42.7091 72.291H45.201Z" fill="#54596E"/>
<path d="M122.317 91.9351L119.83 34.8994L72.1556 44.8699L40.3713 34.8994L37.8865 91.9294C37.1705 96.3669 38.8508 100.831 42.595 104.452L55.6693 120.824C57.1257 123.621 61.2194 125.301 65.4258 124.826L79.5357 123.671L94.8366 124.88C99.0159 125.324 103.064 123.645 104.509 120.871L117.617 104.449C121.356 100.831 123.031 96.3697 122.317 91.9351V91.9351Z" fill="#FFD578"/>
<path d="M122.317 91.9351L124.808 91.8253L122.32 34.7896C122.289 34.0607 121.935 33.3789 121.359 32.931C120.783 32.4831 120.034 32.3091 119.319 32.4589L72.281 42.2967L41.1172 32.5202C40.3784 32.2891 39.5739 32.4132 38.9406 32.8583C38.3058 33.3019 37.915 34.0165 37.8807 34.791L35.396 91.821L37.8865 91.9294L35.4259 91.5314C35.2961 92.333 35.2319 93.1361 35.2319 93.9377C35.2277 98.4594 37.2859 102.8 40.8619 106.243L42.595 104.452L40.6465 106.008L53.7208 122.379L55.6693 120.824L53.4584 121.975C54.4226 123.812 56.023 125.144 57.8531 126.037C59.6931 126.926 61.8042 127.395 64.0051 127.398C64.5671 127.398 65.1334 127.367 65.7011 127.304L65.4272 124.826L65.6297 127.311L79.5399 126.173L94.6397 127.367L94.8365 124.882L94.5755 127.361C95.1104 127.418 95.6439 127.445 96.1731 127.445C98.3754 127.444 100.488 126.973 102.327 126.083C104.157 125.19 105.756 123.859 106.718 122.025L104.509 120.872L106.456 122.427L119.566 106.005L117.617 104.45L119.35 106.242C122.921 102.798 124.975 98.4594 124.97 93.942C124.97 93.1404 124.906 92.3388 124.779 91.54L122.317 91.9351L124.808 91.8253L122.317 91.9351L119.855 92.3288C119.942 92.8679 119.985 93.4057 119.985 93.9406C119.981 96.9346 118.662 99.9571 115.883 102.657L115.669 102.894L102.559 119.316L102.297 119.72C101.971 120.359 101.244 121.068 100.148 121.597C99.0615 122.127 97.6494 122.461 96.1716 122.458C95.8165 122.458 95.457 122.44 95.0961 122.401L95.0319 122.396L79.731 121.186H79.3317L65.2218 122.341L65.1505 122.347C64.7654 122.39 64.3817 122.411 64.0051 122.411C62.5273 122.414 61.1166 122.082 60.0312 121.553C58.9343 121.023 58.2068 120.315 57.8802 119.673L57.6163 119.268L44.542 102.897L44.3266 102.66C41.5437 99.9571 40.2215 96.9332 40.2172 93.9392C40.2172 93.4028 40.26 92.8665 40.347 92.3273L40.3755 92.0378L42.7205 38.25L71.4081 47.2491C71.8103 47.3761 72.2511 47.3975 72.6647 47.3119L117.466 37.9405L119.825 92.0435L119.855 92.3302L122.317 91.9351Z" fill="#54596E"/>
<path d="M67.6367 99.7118H92.5643C93.9408 99.7118 95.0576 98.5964 95.0576 97.2199C95.0576 95.842 93.9408 94.7266 92.5643 94.7266H67.6367C66.2602 94.7266 65.1434 95.842 65.1434 97.2199C65.1434 98.5964 66.2602 99.7118 67.6367 99.7118Z" fill="#FF9999"/>
<path d="M72.7674 40.0216L63.1963 42.5406C61.0853 43.0955 59.8201 45.265 60.375 47.3775C60.9327 49.4886 63.1022 50.7552 65.2118 50.1989C67.3286 49.6412 69.4939 50.905 70.0502 53.0174C70.6079 55.1342 69.3441 57.2995 67.2288 57.8558C60.897 59.5232 54.387 55.7276 52.7195 49.393C51.0521 43.0598 54.8477 36.5498 61.1823 34.8823" fill="#BFAD88"/>
<path d="M72.1341 37.6096L62.5616 40.13C59.666 40.8989 57.7518 43.502 57.7518 46.3705C57.7518 46.9125 57.8203 47.466 57.9643 48.0123C58.7375 50.9093 61.3392 52.8221 64.2062 52.8221C64.7497 52.8221 65.3003 52.7536 65.8437 52.6109L66.2246 52.5596C66.8679 52.561 67.4712 52.9961 67.6396 53.6508L67.6895 54.0288C67.6881 54.6721 67.253 55.2754 66.594 55.4438C65.7938 55.6549 64.9936 55.7547 64.2062 55.7547C60.0569 55.7547 56.2284 52.9604 55.1301 48.7583C54.919 47.9566 54.8192 47.1564 54.8192 46.3705C54.8192 42.2168 57.6135 38.3913 61.8156 37.2929C63.1479 36.942 63.9424 35.5784 63.5929 34.2476C63.242 32.9153 61.8784 32.1208 60.5475 32.4703C54.1003 34.1734 49.8339 39.9931 49.8339 46.3691C49.8339 47.5801 49.9894 48.8096 50.3103 50.0278C52.0134 56.4722 57.8317 60.7399 64.2077 60.7399C65.4172 60.7399 66.6454 60.5859 67.8635 60.265C70.7576 59.499 72.6761 56.8958 72.6747 54.0288C72.6747 53.4825 72.6048 52.929 72.4608 52.3827C71.6948 49.4886 69.0916 47.5729 66.2246 47.5744C65.6754 47.5744 65.1206 47.6443 64.5771 47.7883L64.2077 47.8368C63.5658 47.8368 62.9524 47.3946 62.787 46.7413L62.7385 46.3705C62.7385 45.7272 63.1792 45.1153 63.8311 44.9512L73.405 42.4308C74.7358 42.0813 75.5303 40.7177 75.1809 39.3869C74.8286 38.0546 73.4649 37.2601 72.1341 37.6096Z" fill="#54596E"/>
<path d="M102.536 59.8271H57.6648C50.781 59.8271 45.201 65.4072 45.201 72.2909C45.201 79.1761 50.781 84.7547 57.6648 84.7547H74.7301L80.1005 89.7414L85.4708 84.7547H102.536C109.42 84.7547 115 79.1761 115 72.2909C115 65.4072 109.42 59.8271 102.536 59.8271Z" fill="#61C5A8"/>
<path d="M102.536 59.8271V57.3337H57.6648C49.4032 57.3352 42.7105 64.0292 42.7091 72.2909C42.7105 80.5525 49.4032 87.2466 57.6648 87.248H73.7502L78.4045 91.5685C79.3631 92.4586 80.838 92.4586 81.7965 91.5685L86.4494 87.248H102.536C110.798 87.2466 117.492 80.5525 117.493 72.2909C117.492 64.0292 110.798 57.3352 102.536 57.3337V62.3204C105.298 62.3218 107.774 63.433 109.587 65.2402C111.394 67.0532 112.505 69.5294 112.507 72.2909C112.505 75.0538 111.394 77.53 109.587 79.3415C107.774 81.1502 105.298 82.2613 102.536 82.2628H85.4709C84.8433 82.2628 84.2342 82.501 83.7749 82.9275L80.1005 86.3394L76.4261 82.9289C75.9668 82.5024 75.3578 82.2628 74.7302 82.2628H57.6648C54.9033 82.2613 52.4271 81.1502 50.6142 79.3429C48.8069 77.53 47.6958 75.0538 47.6943 72.2909C47.6958 69.5294 48.8069 67.0517 50.6142 65.2402C52.4271 63.433 54.9033 62.3218 57.6648 62.3204H102.536V59.8271Z" fill="#54596E"/>
<path d="M107.025 69.6278C107.025 69.6278 98.7648 79.5312 88.0227 77.4943C88.0227 77.4943 87.2025 68.4139 107.025 69.6278Z" fill="white"/>
<path d="M52.9534 69.6165C52.9534 69.6165 61.198 79.5285 71.943 77.5087C71.943 77.5087 72.7774 68.4283 52.9534 69.6165Z" fill="white"/>
</g>
<defs>
<clipPath id="clip0">
<rect width="187.349" height="187.349" fill="white" transform="translate(708.047 576.317)"/>
</clipPath>
<clipPath id="clip1">
<rect width="175.274" height="175.274" fill="white" transform="translate(450.076 726.342)"/>
</clipPath>
<clipPath id="clip2">
<rect width="152.953" height="152.953" fill="white" transform="translate(472.397 182.226)"/>
</clipPath>
<clipPath id="clip3">
<rect width="165.028" height="165.028" fill="white" transform="translate(625.35 736.588)"/>
</clipPath>
<clipPath id="clip4">
<rect width="159.539" height="159.539" fill="white" transform="translate(1271.19 993.461)"/>
</clipPath>
<clipPath id="clip5">
<rect width="159.539" height="159.539" fill="white"/>
</clipPath>
</defs>
</svg>
